<?xml version="1.0" standalone="no"?>
<!DOCTYPE svg PUBLIC "-//W3C//DTD SVG 1.1//EN" "http://www.w3.org/Graphics/SVG/1.1/DTD/svg11.dtd" >
<!--
2013-9-30: Created.
-->
<svg>
<metadata>
Created by iconfont
</metadata>
<defs>

<font id="iconfont" horiz-adv-x="1024" >
  <font-face
    font-family="iconfont"
    font-weight="500"
    font-stretch="normal"
    units-per-em="1024"
    ascent="896"
    descent="-128"
  />
    <missing-glyph />
    
    <glyph glyph-name="xitong" unicode="&#58903;" d="M549.77 832h-75.54a32 32 0 0 1-31.38-25.72l-19.52-97.59a32.13 32.13 0 0 0-20.62-23.86Q389.37 680 376.59 674a32.53 32.53 0 0 0-13.78-3.07 31.87 31.87 0 0 0-17.71 5.35l-82.8 55.21a32 32 0 0 1-40.38-4l-53.41-53.41a32 32 0 0 1-4-40.38l55.21-82.81a32.15 32.15 0 0 0 2.28-31.48q-6-12.77-10.82-26.13a32.13 32.13 0 0 0-23.86-20.62l-97.6-19.52A32 32 0 0 1 64 421.77v-75.53a32 32 0 0 1 25.72-31.38l97.59-19.52a32.13 32.13 0 0 0 23.86-20.62Q216 261.37 222 248.59a32.15 32.15 0 0 0-2.28-31.48l-55.21-82.81a32 32 0 0 1 4-40.38l53.41-53.41a32 32 0 0 1 40.38-4l82.81 55.21a31.87 31.87 0 0 0 17.71 5.35 32.52 32.52 0 0 0 13.77-3.07q12.77-6 26.13-10.83a32.13 32.13 0 0 0 20.62-23.86l19.52-97.59A32 32 0 0 1 474.23-64h75.53a32 32 0 0 1 31.38 25.72l19.52 97.59a32.13 32.13 0 0 0 20.62 23.86Q634.63 88 647.41 94a32.53 32.53 0 0 0 13.78 3.07 31.87 31.87 0 0 0 17.71-5.35l82.81-55.21a32 32 0 0 1 40.38 4l53.41 53.41a32 32 0 0 1 4 40.38l-55.21 82.81a32.15 32.15 0 0 0-2.29 31.48q6 12.77 10.82 26.12a32.13 32.13 0 0 0 23.86 20.62l97.59 19.52A32 32 0 0 1 960 346.23v75.54a32 32 0 0 1-25.72 31.38l-97.59 19.52a32.13 32.13 0 0 0-23.86 20.62Q808 506.63 802 519.41a32.15 32.15 0 0 0 2.28 31.48l55.21 82.81a32 32 0 0 1-4 40.38l-53.41 53.41a32 32 0 0 1-40.38 4l-82.81-55.21a31.87 31.87 0 0 0-17.71-5.35 32.52 32.52 0 0 0-13.77 3.07q-12.77 6-26.13 10.83a32.13 32.13 0 0 0-20.62 23.86l-19.51 97.59A32 32 0 0 1 549.77 832zM512 192a192 192 0 1 0 135.76 56.24A190.74 190.74 0 0 0 512 192z"  horiz-adv-x="1024" />

    
    <glyph glyph-name="down" unicode="&#59725;" d="M895.7 595.9c0-9.6-3.2-19.3-9.6-27.4L545.2 144.7c-8.3-10.3-20.8-16.3-34.1-16.3-13.2 0-25.8 6-34 16.3L138 566.7c-15.1 18.8-12.1 46.3 6.7 61.4 18.8 15.1 46.3 12.1 61.4-6.7l305.1-379.6L818 623.3c15.1 18.8 42.6 21.8 61.4 6.7 10.7-8.7 16.3-21.3 16.3-34.1z"  horiz-adv-x="1024" />

    
    <glyph glyph-name="left" unicode="&#59730;" d="M724.4 0.3c-9.6 0-19.3 3.2-27.4 9.6L273.2 350.8c-10.3 8.3-16.3 20.8-16.3 34.1 0 13.2 6 25.8 16.3 34l422 339.1c18.8 15.1 46.3 12.1 61.4-6.7 15.1-18.8 12.1-46.3-6.7-61.4l-379.6-305L751.8 78c18.8-15.1 21.8-42.6 6.7-61.4-8.7-10.7-21.3-16.3-34.1-16.3z"  horiz-adv-x="1024" />

    
    <glyph glyph-name="right" unicode="&#59733;" d="M300.6 0.3c9.6 0 19.3 3.2 27.4 9.6l423.8 340.9c10.3 8.3 16.3 20.8 16.3 34.1 0 13.2-6 25.8-16.3 34L329.8 758c-18.8 15.1-46.3 12.1-61.4-6.7-15.1-18.8-12.1-46.3 6.7-61.4l379.6-305.1L273.2 78c-18.8-15.1-21.8-42.6-6.7-61.4 8.7-10.7 21.3-16.3 34.1-16.3z"  horiz-adv-x="1024" />

    
    <glyph glyph-name="up" unicode="&#59737;" d="M895.7 236.1c0 9.6-3.2 19.3-9.6 27.4L545.2 687.3c-8.3 10.3-20.8 16.3-34.1 16.3-13.2 0-25.8-6-34-16.3L138 265.3c-15.1-18.8-12.1-46.3 6.7-61.4 18.8-15.1 46.3-12.1 61.4 6.7l305.1 379.6L818 208.7c15.1-18.8 42.6-21.8 61.4-6.7 10.7 8.7 16.3 21.3 16.3 34.1z"  horiz-adv-x="1024" />

    
    <glyph glyph-name="-daoru" unicode="&#58881;" d="M47.234-83.775v210.45h102.303v-70.151h724.874v70.15h102.3v-210.45H47.233zM149.54 536.052l242.595-0.175V851.549h242.6v-309.827h242.6L517.821 161.747 149.539 536.052z"  horiz-adv-x="1024" />

    
    <glyph glyph-name="_huiyuanguanli" unicode="&#58882;" d="M648.452 251.005c-12.057 6.029-19.505 18.087-19.505 33.103V299.24c0 10.521 4.49 21.043 13.476 28.612 66.077 51.19 107.925 138.556 107.925 237.983C750.348 722.601 643.842 849.1 511.92 849.1S273.61 721.063 273.61 564.417c0-98.009 41.964-183.838 104.85-235.148 9.103-6.03 13.596-16.552 13.596-28.61v-19.508c0-13.595-7.567-27.19-19.506-33.22C230.11 177.114 47.124 74.732 47.124-3.768v-76.611h929.477v76.611c0 78.5-184.407 182.537-328.15 254.772z"  horiz-adv-x="1024" />

    
    <glyph glyph-name="shouye" unicode="&#58883;" d="M418.93376-79.27808v327.424h185.91744v-327.424h232.40192v436.57216h139.43296L511.89248 848.42496 47.104 357.28896h139.43296v-436.56192h232.39168v-0.00512z m0 0"  horiz-adv-x="1024" />

    
    <glyph glyph-name="tuichudenglu" unicode="&#58885;" d="M570.10688 848.7424H453.90336v-525.52192h116.1984V848.7424z m208.86016-86.8864L697.6512 681.0624c92.87168-63.45728 162.42688-173.14304 162.42688-300.05248 0-190.47936-156.544-346.28608-348.17536-346.28608-191.42656 0-348.17536 155.80672-348.17536 346.28608 0 126.90944 69.76 236.5952 168.30976 294.27712L245.0432 761.856C129.05472 675.28704 47.73376 536.81152 47.73376 381.00992c0-254.03904 209.0752-461.75232 464.16384-461.75232 255.29856 0 464.36864 207.70816 464.36864 461.75232 0.00512 155.8016-81.31072 294.27712-197.2992 380.84608z"  horiz-adv-x="1024" />

    
    <glyph glyph-name="wancheng" unicode="&#58886;" d="M512-80.7424c-256.67072 0-464.7424 208.07168-464.7424 464.73728C47.2576 640.67072 255.32928 848.7424 512 848.7424s464.7424-208.07168 464.7424-464.7424c0-256.67072-208.07168-464.7424-464.7424-464.7424z m225.41312 754.26816c-161.65888-106.2144-264.18176-424.86272-264.18176-424.86272L410.14272 405.45792l-130.11968-101.16096c55.20896-25.28768 134.0672-106.2144 201.09312-212.4288 47.31392 111.26784 193.20832 338.87744 264.18176 359.11168-27.5968 80.9216-11.82208 146.67776-7.8848 222.54592z m0 0"  horiz-adv-x="1024" />

    
    <glyph glyph-name="xinzeng" unicode="&#58887;" d="M512.11776 848.7424C255.40096 848.7424 47.14496 640.72192 47.14496 384c0-256.60416 208.256-464.7424 464.9728-464.7424 256.48128 0 464.7424 208.13824 464.7424 464.7424 0 256.72192-208.26112 464.7424-464.7424 464.7424z m232.3712-522.77248h-174.44864v-174.34112h-116.0704v174.34112H279.75168V442.15296h174.21824V616.3712h116.0704v-174.21824h174.44864v-116.18304z"  horiz-adv-x="1024" />

    
    <glyph glyph-name="zhanghao" unicode="&#58888;" d="M723.4304 387.39968c-54.12352-47.74912-125.9776-77.056-205.16352-77.056-80.36352 0-153.40032 30.2592-207.76448 79.42144-126.45376-33.09056-204.69248-146.0736-204.69248-281.04192v-68.78208c0-160.96768 812.3904-160.96768 812.3904 0v68.78208c-0.00512 131.41504-74.21952 242.5088-194.76992 278.67648z m-205.16352-28.12928c140.16512 0 254.09536 109.44 254.09536 244.63872S658.66752 848.78336 518.26688 848.78336c-139.9296 0-253.85472-109.67552-253.85472-244.87424 0-135.20384 113.92512-244.63872 253.85472-244.63872z m0 0"  horiz-adv-x="1024" />

    
    <glyph glyph-name="xinxifuwu" unicode="&#59098;" d="M861.866667 238.93333299999995c-21.333333 0-38.4 17.066667-38.4 38.4V507.733333c0 21.333333 17.066667 38.4 38.4 38.4s38.4-17.066667 38.4-38.4v-230.4c4.266667-21.333333-17.066667-38.4-38.4-38.4zM584.533333-8.53333299999997c-12.8 0-25.6 8.533333-34.133333 21.333333-12.8 17.066667-4.266667 42.666667 12.8 55.466667l204.8 119.466666c17.066667 12.8 42.666667 4.266667 55.466667-12.8 12.8-17.066667 4.266667-42.666667-12.8-55.466666L605.866667 0c-8.533333-8.533333-17.066667-8.533333-21.333334-8.533333zM443.733333-8.53333299999997c-8.533333 0-12.8 0-21.333333 4.266666l-204.8 119.466667c-17.066667 12.8-25.6 34.133333-12.8 55.466667 12.8 17.066667 34.133333 25.6 55.466667 12.8l204.8-119.466667c17.066667-12.8 25.6-34.133333 12.8-55.466667-8.533333-12.8-21.333333-17.066667-34.133334-17.066666zM166.4 226.133333c-21.333333 0-38.4 17.066667-38.4 38.4V507.733333c0 21.333333 17.066667 38.4 38.4 38.4s38.4-17.066667 38.4-38.4v-238.933333c4.266667-25.6-12.8-42.666667-38.4-42.666667zM238.933333 584.5333330000001c-12.8 0-25.6 8.533333-34.133333 21.333334-12.8 17.066667-4.266667 42.666667 12.8 55.466666l196.266667 115.2c17.066667 12.8 42.666667 4.266667 55.466666-12.8 12.8-17.066667 4.266667-42.666667-12.8-55.466666L256 593.066667c-4.266667-4.266667-12.8-8.533333-17.066667-8.533334zM785.066667 584.5333330000001c-8.533333 0-12.8 0-21.333334 4.266667l-200.533333 119.466667c-17.066667 12.8-25.6 34.133333-12.8 55.466666 12.8 17.066667 34.133333 25.6 55.466667 12.8l200.533333-119.466666c17.066667-12.8 25.6-34.133333 12.8-55.466667-4.266667-8.533333-17.066667-17.066667-34.133333-17.066667zM512 657.066667c-64 0-119.466667 55.466667-119.466667 119.466666S448 896 512 896s119.466667-55.466667 119.466667-119.466667-51.2-119.466667-119.466667-119.466666z m0 157.866666c-21.333333 0-38.4-17.066667-38.4-38.4s17.066667-38.4 38.4-38.4 42.666667 17.066667 42.666667 38.4-17.066667 38.4-42.666667 38.4zM512-128c-64 0-119.466667 55.466667-119.466667 119.466667 0 64 55.466667 119.466667 119.466667 119.466666s119.466667-55.466667 119.466667-119.466666c0-64-51.2-119.466667-119.466667-119.466667z m0 157.866667c-21.333333 0-38.4-17.066667-38.4-38.4s17.066667-38.4 38.4-38.4 38.4 17.066667 38.4 38.4-12.8 38.4-38.4 38.4zM857.6 465.066667c-64 0-119.466667 55.466667-119.466667 119.466666s55.466667 119.466667 119.466667 119.466667c64 0 119.466667-55.466667 119.466667-119.466667s-55.466667-119.466667-119.466667-119.466666z m0 162.133333c-21.333333 0-38.4-17.066667-38.4-38.4s17.066667-38.4 38.4-38.4 38.4 12.8 38.4 34.133333-17.066667 42.666667-38.4 42.666667zM857.6 68.26666699999998c-64 0-119.466667 55.466667-119.466667 119.466666 0 64 55.466667 119.466667 119.466667 119.466667 64 0 119.466667-55.466667 119.466667-119.466667 0-68.266667-55.466667-119.466667-119.466667-119.466666z m0 157.866666c-21.333333 0-38.4-17.066667-38.4-38.4s17.066667-38.4 38.4-38.4 38.4 17.066667 38.4 38.4-17.066667 38.4-38.4 38.4zM166.4 465.066667c-64 0-119.466667 55.466667-119.466667 119.466666s55.466667 119.466667 119.466667 119.466667 119.466667-55.466667 119.466667-119.466667-51.2-119.466667-119.466667-119.466666z m0 162.133333c-21.333333 0-38.4-21.333333-38.4-42.666667s17.066667-38.4 38.4-38.4 38.4 17.066667 38.4 38.4-12.8 42.666667-38.4 42.666667zM166.4 68.26666699999998c-64 0-119.466667 55.466667-119.466667 119.466666 0 64 55.466667 119.466667 119.466667 119.466667s119.466667-55.466667 119.466667-119.466667c0-68.266667-51.2-119.466667-119.466667-119.466666z m0 157.866666c-21.333333 0-38.4-17.066667-38.4-38.4s17.066667-38.4 38.4-38.4 38.4 17.066667 38.4 38.4-12.8 38.4-38.4 38.4zM644.266667 204.79999999999995c-12.8 0-25.6 12.8-25.6 25.6v34.133333c0 21.333333-17.066667 38.4-38.4 38.4h-132.266667c-21.333333 0-38.4-17.066667-38.4-38.4v-34.133333c0-12.8-12.8-25.6-25.6-25.6s-25.6 12.8-25.6 25.6v34.133333c0 51.2 42.666667 93.866667 93.866667 93.866667h132.266666c51.2 0 93.866667-42.666667 93.866667-93.866667v-34.133333c-4.266667-12.8-17.066667-25.6-34.133333-25.6zM512 375.46666700000003c-51.2 0-93.866667 42.666667-93.866667 93.866666s42.666667 93.866667 93.866667 93.866667 93.866667-42.666667 93.866667-93.866667-42.666667-93.866667-93.866667-93.866666z m0 132.266666c-21.333333 0-38.4-17.066667-38.4-38.4s17.066667-38.4 38.4-38.4 38.4 17.066667 38.4 38.4-17.066667 38.4-38.4 38.4z"  horiz-adv-x="1024" />

    
    <glyph glyph-name="lizhijiaojie" unicode="&#58889;" d="M583.4 163.8H754c10.6 0 20.6 6.4 25.6 15.6 5 10 3.5 21.4-2.9 29.9l-44.1 56.9c-10 12.1-27.7 14.9-39.9 5-12.1-10-14.9-27.7-5-39.9l8.5-10.6H583.1c-15.6 0-28.5-12.7-28.5-28.5s13.1-28.4 28.8-28.4z m170.7-28.3H583.4c-10.6 0-20.6-6.4-25.6-15.6-5-10-3.5-21.4 2.9-29.9l44.1-56.9c5.7-7.1 14.2-10.6 22.7-10.6 6.4 0 12.1 2.1 17.7 5.8 12.1 10 14.9 27.7 5 39.9l-8.5 10.6H754c15.6 0 28.5 12.7 28.5 28.5-0.1 15.4-12.8 28.2-28.4 28.2z m0 0M832.2 362.9h-583c-78.2 0-142.2-64-142.2-142.2v-199.1c0-46.9 38.4-85.3 85.4-85.3h639.8c46.9 0 85.4 38.4 85.4 85.3V277.7c-0.1 46.8-38.4 85.2-85.4 85.2zM410.7-6.7H192.4c-15.6 0-28.5 12.7-28.5 28.5v199c0 46.9 38.4 85.3 85.4 85.3h161.3c-2.9-9.2-5-18.5-5-28.5v-255.9c0.1-10 2.2-19.2 5.1-28.4z m450 28.4c0-15.6-12.7-28.5-28.5-28.5H491c-15.6 0-28.5 12.7-28.5 28.5v256c0 15.6 12.7 28.5 28.5 28.5h341.3c15.6 0 28.5-12.7 28.5-28.5v-255.9h-0.1zM398.5 434c46.2 0 89.6 18.5 120.8 50.5 31.2-32 74.6-50.5 120.8-50.5 93.8 0 170.6 76.7 170.6 170.6V746.8c0 46.9-38.4 85.4-85.4 85.4H555c-10.6 0-19.2-5.7-24.1-14.2-13.5 9.1-29.9 14.1-46.9 14.1H313.2c-46.9 0-85.4-38.4-85.4-85.4v-142.2C228 510.9 304.7 434 398.5 434z m170.6 170.7V746.8c0 10-1.4 19.2-5 28.5h161.3c15.6 0 28.5-12.7 28.5-28.5v-142.2c0-62.6-51.2-113.7-113.7-113.7-34.1 0-66.1 14.9-87.5 41.2 10.8 22.7 16.4 47.6 16.4 72.6zM284.8 746.8c0 15.6 12.7 28.5 28.5 28.5h170.6c8.5 0 14.2-3.5 17.7-6.4 7.1-5.7 10.6-13.5 10.6-22v-142.2c0-21.4-5.7-42-17.1-59.7-20.6-34.1-56.9-54-96.7-54-62.6 0-113.7 51.2-113.7 113.7V746.8h0.1z m0 0"  horiz-adv-x="1024" />

    
    <glyph glyph-name="yuangongtiaodongshenqingbiao" unicode="&#58892;" d="M385.3 443.5c13.8 12.1 15.1 33 3 46.8-26.6 30.2-41.2 69.2-41.2 109.5 0 91.5 74.5 166.1 166.1 166.1 91.7 0 166.1-74.5 166.1-166.1 0-40.3-14.6-79.2-41.2-109.5-12.1-13.8-10.7-34.7 3-46.8 6.3-5.5 14.1-8.2 21.8-8.2 9.2 0 18.3 3.8 25 11.3 37.2 42.4 57.7 96.8 57.7 153.2 0 62-24.1 120.4-68 164.4-43.8 43.9-102.2 68-164.2 68-62 0-120.4-24.1-164.4-68-43.9-43.9-68-102.2-68-164.4 0-56.4 20.5-110.8 57.7-153.2 11.9-13.8 32.9-15.1 46.6-3.1z m523.1-305.1c-21.6 51.3-52.7 97.4-92.3 136.8-39.6 39.5-85.5 70.5-136.8 92.3-53.1 22.5-109.5 33.9-167.6 33.9-58.1 0-114.4-11.4-167.6-33.9-51.3-21.6-97.3-52.7-136.8-92.3-39.6-39.6-70.5-85.5-92.3-136.8-22.5-53.1-33.9-109.5-33.9-167.6 0-18.3 14.8-33.1 33.1-33.1s33.1 14.8 33.1 33.1C147.5 171.6 311 335 511.8 335S876 171.6 876-29.2c0-18.3 14.8-33.1 33.1-33.1s33.1 14.8 33.1 33.1c0.1 58.1-11.3 114.6-33.8 167.6z m0 0M677 71H346.7c-0.7 0-1.3 0-2.1-0.1-8.2-0.2-16.3-3.4-22.5-9.7-12.9-12.9-12.9-34 0-46.9l65.8-65.8c6.4-6.4 14.9-9.7 23.4-9.7 8.5 0 17 3.2 23.4 9.7 12.9 12.9 12.9 34 0 46.9l-9.2 9.2h251.6c18.3 0 33.1 14.8 33.1 33.1 0.1 18.4-14.8 33.3-33.2 33.3z m33.2 100.1c0 0.3 0 0.5-0.1 0.8 0 0.3 0 0.5-0.1 0.8 0 0.3-0.1 0.7-0.1 1 0 0.2 0 0.4-0.1 0.6-0.1 0.3-0.1 0.7-0.2 1 0 0.2-0.1 0.3-0.1 0.5-0.1 0.3-0.1 0.7-0.2 1 0 0.2-0.1 0.3-0.1 0.5-0.1 0.3-0.2 0.7-0.3 1 0 0.2-0.1 0.3-0.1 0.5l-0.3 0.9c-0.1 0.2-0.1 0.4-0.2 0.6-0.1 0.3-0.2 0.5-0.3 0.8-0.1 0.2-0.2 0.4-0.3 0.7-0.1 0.2-0.2 0.5-0.3 0.7-0.1 0.3-0.2 0.5-0.3 0.7l-0.3 0.6c-0.1 0.3-0.3 0.5-0.4 0.8-0.1 0.2-0.2 0.3-0.3 0.5-0.2 0.3-0.3 0.6-0.5 0.8-0.1 0.2-0.2 0.3-0.3 0.5-0.2 0.3-0.4 0.6-0.5 0.8-0.1 0.2-0.2 0.3-0.3 0.5-0.2 0.3-0.4 0.5-0.6 0.8-0.1 0.2-0.3 0.4-0.4 0.5-0.2 0.2-0.4 0.5-0.5 0.7-0.2 0.2-0.4 0.5-0.6 0.7-0.1 0.2-0.3 0.3-0.4 0.5-0.4 0.4-0.7 0.8-1.1 1.2l-65.8 65.8c-12.9 12.9-34 12.9-46.9 0-12.9-12.9-12.9-34 0-46.9l9.2-9.2H346.7c-18.3 0-33.1-14.8-33.1-33.1s14.8-33.1 33.1-33.1h332.1c0.3 0 0.5 0 0.7 0.1 0.3 0 0.5 0 0.8 0.1 0.3 0 0.6 0.1 0.9 0.1 0.2 0 0.4 0 0.6 0.1 0.3 0 0.7 0.1 1 0.2 0.2 0 0.4 0.1 0.5 0.1 0.3 0.1 0.7 0.1 1 0.2 0.2 0 0.3 0.1 0.5 0.1 0.3 0.1 0.6 0.2 1 0.3 0.2 0.1 0.4 0.1 0.5 0.2l0.9 0.3c0.2 0.1 0.4 0.1 0.6 0.2 0.3 0.1 0.5 0.2 0.8 0.3 0.2 0.1 0.5 0.2 0.7 0.3 0.2 0.1 0.5 0.2 0.7 0.3 0.3 0.1 0.5 0.2 0.8 0.3l0.6 0.3c0.3 0.1 0.6 0.3 0.8 0.4 0.2 0.1 0.3 0.2 0.5 0.3 0.3 0.2 0.6 0.3 0.9 0.5 0.2 0.1 0.3 0.2 0.5 0.3l0.9 0.6c0.2 0.1 0.3 0.2 0.5 0.3 0.3 0.2 0.5 0.4 0.8 0.6 0.2 0.1 0.3 0.3 0.5 0.4 0.2 0.2 0.5 0.4 0.7 0.6 0.2 0.2 0.5 0.4 0.7 0.6 0.2 0.1 0.3 0.3 0.5 0.4 0.8 0.7 1.6 1.6 2.4 2.4 0.1 0.2 0.3 0.3 0.4 0.5 0.2 0.2 0.4 0.5 0.6 0.7 0.2 0.2 0.4 0.5 0.5 0.7 0.1 0.2 0.3 0.4 0.4 0.5 0.2 0.3 0.4 0.5 0.6 0.8 0.1 0.2 0.2 0.3 0.3 0.5 0.2 0.3 0.4 0.6 0.5 0.8 0.1 0.2 0.2 0.3 0.3 0.5 0.2 0.3 0.3 0.6 0.5 0.8 0.1 0.2 0.2 0.3 0.3 0.5 0.1 0.3 0.3 0.5 0.4 0.8l0.3 0.6c0.1 0.2 0.2 0.5 0.3 0.7 0.1 0.2 0.2 0.5 0.3 0.7 0.1 0.2 0.2 0.4 0.3 0.7 0.1 0.3 0.2 0.5 0.3 0.8 0.1 0.2 0.1 0.4 0.2 0.6l0.3 0.9c0.1 0.2 0.1 0.3 0.1 0.5 0.1 0.3 0.2 0.7 0.3 1 0 0.2 0.1 0.3 0.1 0.5 0.1 0.3 0.2 0.7 0.2 1 0 0.2 0.1 0.3 0.1 0.5 0.1 0.3 0.1 0.7 0.2 1 0 0.2 0 0.4 0.1 0.6 0 0.3 0.1 0.6 0.1 1 0 0.3 0 0.5 0.1 0.8 0 0.3 0 0.5 0.1 0.8v1.9c0.9 2 0.9 2.4 0.9 2.9z m0 0"  horiz-adv-x="1024" />

    
    <glyph glyph-name="jiaoseguanli" unicode="&#58934;" d="M819.2 76.8h204.8v102.4h-204.8zM716.8 588.8v-102.4h307.2V588.8z m51.2-307.2h256v102.4h-256z m-244.224 61.952a256 256 0 1 1-330.752 0A358.4 358.4 0 0 1 0 25.6a339.456 339.456 0 0 1 4.096-51.2h102.4A280.064 280.064 0 0 0 102.4 25.6a256 256 0 0 0 512 0 280.064 280.064 0 0 0-5.12-51.2h102.4a339.456 339.456 0 0 1 5.12 51.2 358.4 358.4 0 0 1-193.024 317.952zM358.4 384a153.6 153.6 0 1 0 153.6 153.6 153.6 153.6 0 0 0-153.6-153.6z"  horiz-adv-x="1024" />

    
    <glyph glyph-name="xitong1" unicode="&#58925;" d="M1019.526 357.29l-0.752 50.41c-0.753 24.829-10.534 48.153-28.591 65.458-18.057 17.305-41.381 26.334-66.21 26.334l-24.829-0.753c-8.276 27.086-19.562 53.42-33.105 77.496l21.067 19.562c18.057 16.553 28.59 39.877 30.095 64.706 0.753 24.828-7.523 48.905-24.828 66.962l-34.61 37.62c-34.61 37.619-94.049 39.876-131.668 5.266l-28.59-26.333c-23.325 12.79-47.401 23.324-72.983 31.6V800.447c0 51.162-42.133 93.296-93.296 93.296H481.57c-51.163 0-93.296-42.134-93.296-93.296v-19.562c-27.086-7.524-53.42-17.305-79.001-30.096l-17.305 16.553c-18.057 16.552-42.134 25.58-66.963 24.828-24.828-0.752-48.152-11.285-64.705-30.095l-34.61-37.62c-34.61-37.619-32.352-97.057 5.267-131.667l4.514-3.762c-17.305-29.343-30.848-60.191-40.629-93.296-24.828 0-48.152-9.029-66.21-26.334C10.574 452.091 0.793 428.767 0.041 403.938v-49.657c-0.753-24.83 9.028-48.153 26.333-66.21 17.305-18.058 40.629-27.839 65.458-28.591h2.257c9.029-31.6 21.82-61.696 37.62-90.287l-5.267-6.019c-16.553-18.057-25.582-42.134-24.83-66.962 0.753-24.83 11.287-48.153 30.096-64.706l37.62-34.61c18.057-16.552 40.629-24.828 63.2-24.828 24.83 0 50.41 9.78 68.468 30.095l1.504 1.505c28.591-15.048 57.934-26.334 88.782-34.61v-2.257c0-51.162 42.134-93.296 93.296-93.296h50.41c51.163 0 93.296 42.134 93.296 93.296v9.029c29.344 9.78 57.182 21.819 84.268 37.619l7.524-8.276c16.552-18.058 39.876-28.591 64.705-30.096 24.829-0.752 48.905 7.524 66.963 24.829l37.619 34.61c18.057 16.552 28.59 39.876 30.096 64.705 0.752 24.829-7.524 48.905-24.83 66.963l-19.561 21.067c12.038 24.076 21.819 48.905 28.59 74.486l25.582 0.752c50.41 0.753 91.79 43.639 90.286 94.801z m-75.239-19.562c-4.514-4.514-11.285-6.771-17.305-6.771l-51.162-0.753c-15.8 0-29.343-11.286-32.353-27.086-7.524-36.114-21.066-71.477-39.876-103.077-7.524-12.79-6.02-29.343 4.514-39.876l36.115-39.125c4.514-5.266 6.771-11.285 6.771-18.057 0-6.771-3.01-12.79-8.276-17.305l-37.62-34.61c-5.266-4.514-11.285-6.771-18.057-6.771-6.771 0-12.79 3.01-17.305 8.276l-27.086 29.343c-11.285 12.79-30.095 14.296-44.39 4.515-34.61-24.077-72.23-41.382-112.859-51.163-15.047-3.762-25.58-17.305-25.58-33.105v-34.61c0-14.295-11.287-25.58-25.582-25.58h-50.41c-14.295 0-25.581 11.285-25.581 25.58v29.343c0 16.553-11.286 30.096-27.839 33.105-42.133 8.277-81.258 23.324-118.125 45.896-13.543 8.276-31.6 6.02-42.886-6.019l-19.562-21.067c-9.78-10.533-25.58-10.533-35.362-1.505l-37.62 34.61c-5.266 4.515-7.523 10.534-8.276 17.305 0 6.772 2.258 13.543 6.772 18.057l22.572 24.83c10.533 11.285 12.038 28.59 3.761 41.38-23.324 36.115-39.876 75.24-48.905 116.62-3.01 15.049-16.552 26.334-32.352 26.334l-28.591 0.753c-14.296 0-24.829 12.038-24.829 25.58l0.752 50.41c0 6.772 2.258 12.791 6.772 17.306 5.267 5.267 11.286 7.524 18.81 7.524l26.333-0.753c15.8 0 30.096 10.534 33.858 26.334 9.78 43.638 27.838 84.267 53.42 121.134 9.78 13.543 7.523 33.105-5.268 44.391l-25.58 23.324c-10.534 9.781-10.534 25.581-1.506 35.362l34.61 37.62c4.515 5.267 10.534 7.524 17.305 8.276 6.772 0 13.543-2.257 18.058-6.771l35.362-32.353c11.286-9.781 27.086-12.038 39.876-4.514 33.858 19.562 69.972 33.105 107.592 40.629 15.8 3.01 27.086 17.305 27.086 33.105V800.447c0 14.295 11.286 25.58 25.581 25.58h50.41c14.295 0 25.581-11.285 25.581-25.58v-50.41c0-15.8 10.534-29.343 25.581-33.105 36.115-9.029 69.972-23.324 101.573-43.639 12.79-8.276 30.095-6.771 41.381 3.762l47.4 43.639c10.534 9.78 26.334 9.028 35.363-1.505l34.61-37.62c4.514-5.266 6.771-11.285 6.771-18.057 0-6.771-3.01-12.79-8.276-17.305l-41.382-38.372c-12.038-11.285-14.295-29.343-5.266-42.886 21.067-33.105 36.867-69.972 45.895-108.344 3.762-15.8 17.305-26.333 33.858-26.333l51.162 0.752c6.772 0 12.79-2.257 18.058-6.771 4.514-4.515 7.523-11.286 7.523-18.058l0.753-50.41c0.752-6.771-1.505-13.543-6.772-18.057z m0 0M509.407 528.082c-81.258 0-147.468-66.21-147.468-147.468s66.21-147.468 147.468-147.468 147.468 66.21 147.468 147.468-66.21 147.468-147.468 147.468z m0-227.22c-44.39 0-79.753 36.114-79.753 79.752 0 44.391 36.115 79.753 79.753 79.753 44.391 0 79.753-36.114 79.753-79.753s-35.362-79.753-79.753-79.753z m0 0"  horiz-adv-x="1024" />

    
    <glyph glyph-name="xinzengyonghu" unicode="&#58932;" d="M512.00073 417.28a239.36 239.36 0 1 1-239.36 239.36A239.36 239.36 0 0 1 512.00073 417.28zM813.44073 320A512 512 0 0 1 0.00073-94.72V-128h664.32a256 256 0 0 0 149.12 448zM960.00073 128h-64v64a64 64 0 0 1-128 0v-64h-64a64 64 0 0 1 0-128h64v-64a64 64 0 0 1 128 0v64h64a64 64 0 0 1 0 128z"  horiz-adv-x="1024" />

    
    <glyph glyph-name="zhuxiao" unicode="&#58922;" d="M987.52-107.52a30.72 30.72 0 0 0-21.76 8.32l-277.12 263.68a31.36 31.36 0 0 0 0 44.8 32 32 0 0 0 44.8 0l277.12-263.04a31.36 31.36 0 0 0 0-44.8 32.64 32.64 0 0 0-23.04-8.96zM717.44-114.56a31.36 31.36 0 0 0-21.76 8.96 30.72 30.72 0 0 0 0 44.16L960 215.68a32 32 0 1 0 46.08-43.52l-263.04-277.12a32.64 32.64 0 0 0-25.6-9.6zM463.36 341.12a274.56 274.56 0 1 0 273.92 273.92 274.56 274.56 0 0 0-273.92-273.92z m0 485.76a211.84 211.84 0 1 1 211.2-211.84 211.84 211.84 0 0 1-211.2 211.84zM586.24-121.6h-576v70.4a455.04 455.04 0 0 0 453.76 455.04 31.36 31.36 0 1 0 0-64 392.96 392.96 0 0 1-392.32-391.04v-7.04h512a32 32 0 0 0 0-64z"  horiz-adv-x="1024" />

    
    <glyph glyph-name="xitongguanli-" unicode="&#58904;" d="M381.1-101c-9.5 0-18.9 2.5-27.1 7.2l-163.9 94c-12.7 7.3-21.7 19-25.5 33.1s-1.9 28.8 5.3 41.5l42 73.3c-17.3 23.2-31.8 48-43.2 74.3l-84.7-0.3c-30 0-54.5 24.4-54.6 54.5l-0.6 189c-0.1 30.1 24.3 54.7 54.5 54.8l84.6 0.2c6 14.3 12.2 26.8 18.9 38.6 6.8 11.8 14.4 23.4 23.8 35.8l-42.5 73.1c-15.1 26-6.3 59.5 19.8 74.7l163.4 95c8.3 4.8 17.8 7.4 27.4 7.4 19.4 0 37.5-10.4 47.3-27.2l42.4-73c28.4 3.4 57.3 3.4 85.9 0.2l42 73.3C606 835.4 624.2 846 643.7 846c9.5 0 18.9-2.5 27.1-7.2l163.9-94c12.7-7.3 21.7-19 25.5-33.1s1.9-28.8-5.3-41.5l-42-73.3c17.3-23.2 31.8-48 43.2-74.3l84.6 0.2c30 0 54.5-24.4 54.6-54.5l0.6-189c0-14.6-5.6-28.3-15.9-38.7-10.3-10.3-24-16.1-38.6-16.1l-84.6-0.2c-6-14.3-12.1-26.8-18.9-38.6-6.8-11.8-14.4-23.4-23.8-35.8l42.5-73.1c15.1-26 6.3-59.5-19.8-74.7l-163.4-95c-8.3-4.8-17.8-7.4-27.4-7.4-19.4 0-37.5 10.4-47.3 27.2l-42.4 73c-28.4-3.4-57.3-3.4-85.9-0.2l-42-73.3c-9.6-16.9-27.8-27.4-47.3-27.4zM181.9 262.4c8.2 0 15.6-5 18.6-12.7 12.3-31.4 29.4-60.8 50.9-87.4 5.2-6.4 5.9-15.3 1.8-22.5l-48.7-84.9c-1.9-3.4-2.4-7.3-1.4-11.1s3.5-6.9 6.8-8.9l163.9-94c2.2-1.3 4.7-1.9 7.2-1.9 5.2 0 10.1 2.8 12.7 7.4l48.7 84.9c4.1 7.1 12.2 11.1 20.3 9.8 16.6-2.5 33.4-3.7 50-3.7 17.1 0 34.4 1.3 51.2 4 8.1 1.3 16.2-2.6 20.4-9.7l49.1-84.5c2.6-4.5 7.5-7.3 12.7-7.3 2.6 0 5 0.7 7.3 2l163.4 95c7 4.1 9.3 13 5.3 20l-49.3 84.7c-4.1 7.1-3.5 16 1.6 22.5 12 15.1 21.1 28.4 28.8 41.7 7.7 13.4 14.5 28 21.5 45.9 3 7.7 10.4 12.7 18.6 12.8l98 0.3c3.9 0 7.6 1.5 10.3 4.3 2.8 2.8 4.3 6.4 4.3 10.4l-0.6 189c0 8-6.6 14.6-14.6 14.6l-97.8-0.3h-0.1c-8.2 0-15.6 5-18.6 12.7-12.3 31.4-29.4 60.8-50.9 87.4-5.2 6.4-5.9 15.3-1.8 22.5l48.7 84.9c1.9 3.4 2.5 7.3 1.4 11.1s-3.5 6.9-6.8 8.9l-163.9 94c-2.2 1.3-4.7 1.9-7.2 1.9-5.2 0-10.1-2.8-12.7-7.4l-48.7-84.9c-4.1-7.1-12.2-11-20.3-9.8-16.6 2.5-33.4 3.7-50 3.7-17.1 0-34.4-1.3-51.2-4-8.1-1.3-16.2 2.6-20.4 9.7l-49.1 84.6c-2.6 4.5-7.5 7.3-12.7 7.3-2.6 0-5-0.7-7.3-2l-163.4-95c-7-4.1-9.3-13-5.3-20l49.3-84.7c4.1-7.1 3.5-16-1.6-22.5-12-15.1-21.1-28.3-28.8-41.7-7.7-13.4-14.5-28-21.5-45.9-3-7.7-10.4-12.7-18.6-12.8l-98-0.3c-8.1 0-14.6-6.6-14.6-14.7l0.6-189c0-8 6.6-14.6 14.6-14.6l97.9 0.2zM512.2 197.2c-30.4 0-60.5 8-87 23.2-83.8 48.1-112.9 155.3-64.8 239.1 31.1 54.3 89.4 88.1 152.1 88.1 30.4 0 60.5-8 87-23.2 40.6-23.3 69.7-61 81.9-106.1 12.2-45.2 6.2-92.4-17.1-133-31.1-54.3-89.4-88.1-152.1-88.1z m0.3 310.4c-48.4 0-93.4-26-117.4-68-37.1-64.7-14.6-147.4 50-184.5 20.5-11.7 43.7-17.9 67.1-17.9 48.4 0 93.4 26 117.4 68 18 31.3 22.7 67.8 13.2 102.6-9.4 34.8-31.9 63.9-63.2 81.9-20.4 11.7-43.6 17.9-67.1 17.9z"  horiz-adv-x="1024" />

    
    <glyph glyph-name="icon_Groupcustomer" unicode="&#58965;" d="M639.640277 346.33303a274.829432 274.829432 0 1 0 274.65877 274.808099 274.744101 274.744101 0 0 0-274.65877-274.808099z m0 464.306651a189.498552 189.498552 0 1 1 189.370556-189.498552A189.434554 189.434554 0 0 1 639.640277 810.639681zM1024.013226-128H255.459322v175.248295a384.202288 384.202288 0 1 0 768.404575 0zM340.896866-42.66912h597.828146v89.917415a298.914073 298.914073 0 1 1-597.828146 0zM386.740881 810.639681h-2.389264a189.498552 189.498552 0 0 1-42.66544-374.133244v-85.33088a273.933458 273.933458 0 0 0 42.66544 544.624342 501.062928 501.062928 0 0 0 70.525972-9.17307A161.126034 161.126034 0 0 1 386.740881 810.639681zM213.79652-128H0v183.248065a389.343473 389.343473 0 0 0 341.536847 381.471699v-85.33088a293.922216 293.922216 0 0 1-256.269965-296.098154v-97.917184h128.508305z"  horiz-adv-x="1024" />

    
    <glyph glyph-name="duoxuan" unicode="&#58890;" d="M914.285714-128h-804.571428C51.2-128 0-76.8 0-18.285714v804.571428C0 844.8 51.2 896 109.714286 896h804.571428c58.514286 0 109.714286-51.2 109.714286-109.714286v-804.571428c0-58.514286-51.2-109.714286-109.714286-109.714286zM109.714286 822.857143c-21.942857 0-36.571429-14.628571-36.571429-36.571429v-804.571428c0-21.942857 14.628571-36.571429 36.571429-36.571429h804.571428c21.942857 0 36.571429 14.628571 36.571429 36.571429v804.571428c0 21.942857-14.628571 36.571429-36.571429 36.571429h-804.571428zM416.914286 135.314286L153.6 391.314286l58.514286 58.514285L416.914286 237.714286l409.6 402.285714 51.2-51.2z"  horiz-adv-x="1024" />

    
    <glyph glyph-name="danxuan" unicode="&#58891;" d="M512-128c-285.257143 0-512 226.742857-512 512s226.742857 512 512 512 512-226.742857 512-512-226.742857-512-512-512zM512 815.542857C277.942857 815.542857 80.457143 618.057143 80.457143 384s190.171429-431.542857 431.542857-431.542857 431.542857 190.171429 431.542857 431.542857S746.057143 815.542857 512 815.542857zM256 384c0-138.971429 117.028571-256 256-256s256 117.028571 256 256S650.971429 640 512 640 256 522.971429 256 384z"  horiz-adv-x="1024" />

    
    <glyph glyph-name="sousuo" unicode="&#58894;" d="M1014.225455-66.56l-174.08 186.181818a471.04 471.04 0 1 1-168.96-129.861818 37.422545 37.422545 0 1 1-30.254546 68.421818 402.618182 402.618182 0 1 0 123.345455 87.505455 36.305455 36.305455 0 0 1 0-51.665455l3.723636-2.327273s0-3.258182 2.792727-4.18909l188.509091-202.007273a36.770909 36.770909 0 0 1 26.996364-11.636364 35.84 35.84 0 0 1 24.669091 9.774546 36.770909 36.770909 0 0 1 0 51.665454z"  horiz-adv-x="1024" />

    
    <glyph glyph-name="tianjia" unicode="&#58895;" d="M512.249878 359.262079H37.481698a24.987799 24.987799 0 0 0-24.987799 24.488043 24.987799 24.987799 0 0 0 24.987799 24.987799h449.780381v449.780381a24.987799 24.987799 0 0 0 24.987799 24.987799 24.987799 24.987799 0 0 0 24.987799-24.987799v-474.76818a24.987799 24.987799 0 0 0-24.987799-24.987799z m0-475.267936a25.487555 25.487555 0 0 0-24.987799 24.987799v474.76818a25.487555 25.487555 0 0 0 24.987799 24.987799 24.987799 24.987799 0 0 0 24.987799-24.987799v-474.76818a24.987799 24.987799 0 0 0-24.987799-24.987799z m474.76818 474.76818h-349.829185a24.987799 24.987799 0 0 0-24.987799 24.987799 25.487555 25.487555 0 0 0 24.987799 24.987799h349.829185a25.487555 25.487555 0 0 0 24.987799-24.987799 24.987799 24.987799 0 0 0-24.987799-24.987799zM512.249878-128a37.981454 37.981454 0 0 0-37.481698 37.481698v437.286482H37.481698a37.481698 37.481698 0 0 0 0 74.963396h436.786726V858.518302a37.481698 37.481698 0 0 0 74.963396 0v-949.53636a37.481698 37.481698 0 0 0-36.981942-36.981942z m-12.493899 474.76818v-437.286482a12.493899 12.493899 0 0 1 12.493899-12.493899 12.493899 12.493899 0 0 1 12.493899 12.493899v439.285506a32.983895 32.983895 0 0 0-12.493899 0z m0 24.987799h12.493899a12.493899 12.493899 0 0 1 12.493899 12.493899 12.493899 12.493899 0 0 1-12.493899 12.493899 12.993655 12.993655 0 0 1-12.493899-12.493899z m-461.774525 24.987798a12.493899 12.493899 0 0 1-12.493899-12.493899 12.493899 12.493899 0 0 1 12.493899-12.493899H474.76818v11.994143a36.981942 36.981942 0 0 0 0 12.493899z m474.268424 24.987799a32.983895 32.983895 0 0 0 12.493899 0V858.518302a12.493899 12.493899 0 0 1-12.493899 12.493899 12.493899 12.493899 0 0 1-12.493899-12.493899v-439.285506a36.981942 36.981942 0 0 0 12.493899 2.49878z m474.76818-74.963396h-349.829185a37.481698 37.481698 0 0 0 0 74.963396h349.829185a37.481698 37.481698 0 0 0 0-74.963396z m-349.829185 49.975597a12.493899 12.493899 0 0 1-12.4939-12.493899 12.493899 12.493899 0 0 1 12.4939-12.493899h349.829185a12.493899 12.493899 0 0 1 12.493899 12.493899 12.993655 12.993655 0 0 1-12.493899 12.493899z"  horiz-adv-x="1024" />

    
    <glyph glyph-name="gerenguanli" unicode="&#59099;" d="M512 320C371.2 320 256 435.2 256 576s115.2 256 256 256 256-115.2 256-256-115.2-256-256-256z m0 448C403.2 768 320 684.8 320 576s83.2-192 192-192 192 83.2 192 192-83.2 192-192 192zM960-64h-64c0 211.2-172.8 384-384 384s-384-172.8-384-384H64c0 249.6 198.4 448 448 448s448-198.4 448-448z"  horiz-adv-x="1024" />

    
    <glyph glyph-name="jiaoseguanli1" unicode="&#59100;" d="M736 192h-448c-19.2 0-32 12.8-32 32s12.8 32 32 32h448c19.2 0 32-12.8 32-32s-12.8-32-32-32zM736 64h-448c-19.2 0-32 12.8-32 32s12.8 32 32 32h448c19.2 0 32-12.8 32-32s-12.8-32-32-32zM832 768c38.4 0 64-25.6 64-64v-640c0-38.4-25.6-64-64-64H192c-38.4 0-64 25.6-64 64V704c0 38.4 25.6 64 64 64h640m0 64H192c-70.4 0-128-57.6-128-128v-640c0-70.4 57.6-128 128-128h640c70.4 0 128 57.6 128 128V704c0 70.4-57.6 128-128 128zM512 454.4c-70.4 0-121.6 57.6-121.6 128S441.6 704 512 704s121.6-57.6 121.6-121.6-51.2-128-121.6-128zM512 640c-32 0-57.6-25.6-57.6-57.6s25.6-57.6 57.6-57.6 57.6 25.6 57.6 57.6S544 640 512 640zM710.4 320h-64c0 76.8-64 134.4-134.4 134.4S377.6 396.8 377.6 320h-64c0 108.8 89.6 198.4 198.4 198.4s198.4-89.6 198.4-198.4z"  horiz-adv-x="1024" />

    
    <glyph glyph-name="jichuguanli" unicode="&#59101;" d="M736 352h-448c-19.2 0-32 12.8-32 32s12.8 32 32 32h448c19.2 0 32-12.8 32-32s-12.8-32-32-32zM736 576h-448c-19.2 0-32 12.8-32 32s12.8 32 32 32h448c19.2 0 32-12.8 32-32s-12.8-32-32-32zM736 128h-448c-19.2 0-32 12.8-32 32s12.8 32 32 32h448c19.2 0 32-12.8 32-32s-12.8-32-32-32zM832 768c38.4 0 64-25.6 64-64v-640c0-38.4-25.6-64-64-64H192c-38.4 0-64 25.6-64 64V704c0 38.4 25.6 64 64 64h640m0 64H192c-70.4 0-128-57.6-128-128v-640c0-70.4 57.6-128 128-128h640c70.4 0 128 57.6 128 128V704c0 70.4-57.6 128-128 128z"  horiz-adv-x="1024" />

    
    <glyph glyph-name="xiaozuguanli" unicode="&#59102;" d="M371.2 288c-153.6 0-275.2 121.6-275.2 275.2C96 710.4 217.6 832 371.2 832s275.2-121.6 275.2-275.2c0-147.2-128-268.8-275.2-268.8z m0 480C256 768 160 672 160 556.8c0-115.2 96-211.2 211.2-211.2 115.2 0 211.2 96 211.2 211.2C582.4 672 486.4 768 371.2 768z m0 0M678.4-64c-6.4 0-19.2 6.4-19.2 6.4-6.4 6.4-6.4 12.8-6.4 19.2 0 153.6-121.6 275.2-275.2 275.2s-275.2-121.6-275.2-275.2c-6.4-12.8-19.2-25.6-38.4-25.6s-32 12.8-32 32c0 185.6 153.6 339.2 339.2 339.2s339.2-153.6 339.2-339.2c0-19.2-12.8-32-32-32z m-64 339.2c-19.2 0-32 12.8-32 32s12.8 32 32 32c115.2 0 211.2 96 211.2 211.2 0 115.2-96 211.2-211.2 211.2-12.8 0-25.6 6.4-32 12.8-6.4 12.8-6.4 19.2 0 32s19.2 12.8 25.6 12.8c153.6 0 275.2-121.6 275.2-275.2 0-147.2-121.6-268.8-268.8-268.8z m0 0M960-57.6c-6.4 0-19.2 6.4-19.2 6.4-6.4 6.4-6.4 12.8-6.4 19.2 0 179.2-128 300.8-320 300.8-19.2 0-32 12.8-32 32s12.8 32 32 32c102.4 0 198.4-32 268.8-96 32-32 64-70.4 83.2-115.2 19.2-44.8 32-96 32-147.2 0-6.4-6.4-19.2-6.4-19.2-12.8-12.8-25.6-12.8-32-12.8z m0 0"  horiz-adv-x="1024" />

    
    <glyph glyph-name="zuzhiguanli" unicode="&#59103;" d="M851.2 377.6H179.2c-19.2 0-32 12.8-32 32s12.8 32 32 32h672c19.2 0 32-12.8 32-32 0-12.8-19.2-32-32-32zM211.2 409.6v-224c0-19.2-12.8-32-32-32s-32 12.8-32 32V409.6c0 19.2 12.8 32 32 32 12.8 0 32-12.8 32-32zM883.2 409.6v-224c0-19.2-12.8-32-32-32s-32 12.8-32 32V409.6c0 19.2 12.8 32 32 32 12.8 0 32-12.8 32-32zM211.2-57.6h-64c-51.2 0-96 44.8-96 96v64c0 51.2 44.8 96 96 96h64c51.2 0 96-44.8 96-96v-64c0-57.6-44.8-96-96-96z m-64 192c-19.2 0-32-12.8-32-32v-64c0-19.2 12.8-32 32-32h64c19.2 0 32 12.8 32 32v64c0 19.2-12.8 32-32 32h-64zM544 608v-422.4c0-12.8-12.8-25.6-25.6-25.6h-12.8c-12.8 0-25.6 12.8-25.6 25.6V608c0 12.8 12.8 25.6 25.6 25.6H512c19.2 0 32-6.4 32-25.6zM544-57.6h-64c-51.2 0-96 44.8-96 96v64c0 51.2 44.8 96 96 96h64c51.2 0 96-44.8 96-96v-64c0-57.6-44.8-96-96-96z m-64 192c-19.2 0-32-12.8-32-32v-64c0-19.2 12.8-32 32-32h64c19.2 0 32 12.8 32 32v64c0 19.2-12.8 32-32 32h-64zM544 569.6h-64C428.8 569.6 384 614.4 384 665.6v64c0 51.2 44.8 96 96 96h64c51.2 0 96-44.8 96-96v-64c0-51.2-44.8-96-96-96z m-64 192c-19.2 0-32-12.8-32-32v-64c0-19.2 12.8-32 32-32h64c19.2 0 32 19.2 32 32v64c0 19.2-12.8 32-32 32h-64zM883.2-57.6h-64c-51.2 0-96 44.8-96 96v64c0 51.2 44.8 96 96 96h64c51.2 0 96-44.8 96-96v-64c0-57.6-44.8-96-96-96z m-64 192c-19.2 0-32-12.8-32-32v-64c0-19.2 12.8-32 32-32h64c19.2 0 32 12.8 32 32v64c0 19.2-12.8 32-32 32h-64z"  horiz-adv-x="1024" />

    
    <glyph glyph-name="Global" unicode="&#59057;" d="M511.445333 832c22.570667 0 45.482667-1.706667 68.48-5.248 244.48-37.504 412.330667-266.154667 374.826667-510.677333-33.962667-221.525333-224.768-380.074667-442.197333-380.074667-22.570667 0-45.482667 1.706667-68.48 5.248-244.48 37.504-412.330667 266.154667-374.826667 510.677333C103.210667 673.450667 293.973333 832 511.445333 832z m162.645334-700.074667l-3.626667-6.997333a545.408 545.408 0 0 0-86.485333-118.186667 384.725333 384.725333 0 0 1 165.034666 75.221334l11.050667 9.045333a477.397333 477.397333 0 0 1-85.973333 40.96zM349.866667 131.84l-10.069334-3.626667a477.866667 477.866667 0 0 1-75.904-37.205333 380.544 380.544 0 0 1 172.928-83.541333l3.072-0.554667A545.28 545.28 0 0 0 349.866667 131.84z m162.133333 28.16c-33.621333 0-66.730667-3.413333-98.986667-10.24A480.426667 480.426667 0 0 1 512 26.282667c39.637333 35.413333 73.088 77.141333 99.029333 123.434666-32.341333 6.826667-65.450667 10.282667-99.029333 10.282667z m382.592 192h-159.530667l-0.128-1.962667a541.269333 541.269333 0 0 0-34.432-159.701333c37.205333-13.653333 72.661333-31.402667 105.898667-52.821333a382.464 382.464 0 0 1 88.234667 214.442666z m-605.653333 0H129.28a382.72 382.72 0 0 1 88.362667-214.485333 537.173333 537.173333 0 0 0 105.813333 52.906666 539.776 539.776 0 0 0-32.981333 141.226667l-1.536 20.352z m381.994666 0h-317.866666l1.28-15.786667a476.586667 476.586667 0 0 1 30.592-127.274666 545.066667 545.066667 0 0 0 254.122666 0.128 472.746667 472.746667 0 0 1 30.293334 124.416l1.578666 18.474666zM217.6 630.442667l-1.792-2.048a381.738667 381.738667 0 0 1-83.285333-186.24c-1.322667-8.746667-2.389333-17.493333-3.114667-26.197334h159.530667l0.128 1.962667c3.413333 55.168 15.061333 108.885333 34.432 159.701333A536.32 536.32 0 0 0 217.6 630.485333z m421.461333-71.424l-10.026666-2.432c-38.144-8.362667-77.312-12.629333-117.034667-12.629334-43.221333 0-85.76 5.034667-127.018667 14.933334a473.813333 473.813333 0 0 1-31.914666-142.933334h317.824l-1.237334 15.786667a476.586667 476.586667 0 0 1-30.592 127.274667z m167.253334 71.466666l-7.509334-4.864c-31.018667-19.285333-63.914667-35.413333-98.261333-48.085333a541.44 541.44 0 0 0 34.389333-159.573333l0.085334-2.005334h159.701333a379.690667 379.690667 0 0 1-6.570667 45.397334l-3.84 16.64a382.72 382.72 0 0 1-62.805333 133.12l-7.466667 9.813333-7.68 9.557333z m-294.272 111.232l-4.394667-3.925333a481.834667 481.834667 0 0 1-94.72-119.552 481.877333 481.877333 0 0 1 198.058667-0.042667A480.426667 480.426667 0 0 1 512 741.76z m-72.021334 19.456l-13.226666-2.773333a384.896 384.896 0 0 1-151.68-72.277333l-11.178667-9.173334c27.178667-16.469333 55.978667-30.165333 85.973333-40.96a541.653333 541.653333 0 0 0 76.970667 111.018667l13.141333 14.165333z m234.112-125.013333l7.893334 2.773333c27.178667 10.282667 53.290667 23.04 78.08 38.016a380.586667 380.586667 0 0 1-172.928 83.498667l-3.072 0.597333A545.28 545.28 0 0 0 674.133333 636.16z"  horiz-adv-x="1024" />

    
    <glyph glyph-name="erweima-code-xian" unicode="&#59579;" d="M739.555556 99.555556v56.888888h-170.666667v170.666667h170.666667v-113.777778h113.777777v-113.777777h-56.888889v-113.777778h-113.777777v-113.777778h-113.777778v170.666667h113.777778v56.888889h56.888889z m284.444444-227.555556h-227.555556v113.777778h113.777778v113.777778h113.777778v-227.555556zM0 896h455.111111v-455.111111H0V896z m113.777778-113.777778v-227.555555h227.555555V782.222222H113.777778z m455.111111 113.777778h455.111111v-455.111111h-455.111111V896z m113.777778-113.777778v-227.555555h227.555555V782.222222h-227.555555zM0 327.111111h455.111111v-455.111111H0v455.111111z m113.777778-113.777778v-227.555555h227.555555v227.555555H113.777778z m739.555555 113.777778h170.666667v-113.777778h-170.666667v113.777778zM170.666667 725.333333h113.777777v-113.777777H170.666667V725.333333z m0-568.888889h113.777777v-113.777777H170.666667v113.777777zM739.555556 725.333333h113.777777v-113.777777h-113.777777V725.333333z"  horiz-adv-x="1024" />

    
    <glyph glyph-name="erweima-scan--xian" unicode="&#59581;" d="M682.666667 896h341.333333v-284.444444h-113.777778V782.222222h-227.555555V896zM341.333333 896v-113.777778H113.777778v-170.666666H0V896h341.333333z m341.333334-1024v113.777778h227.555555v170.666666h113.777778v-284.444444h-341.333333z m-341.333334 0H0v284.444444h113.777778v-170.666666h227.555555v-113.777778zM0 440.888889h1024v-113.777778H0V440.888889z"  horiz-adv-x="1024" />

    
    <glyph glyph-name="fangdajingsuosou-xian" unicode="&#59601;" d="M781.702095 183.247238l208.847238-208.798476-68.998095-68.998095-208.798476 208.847238A436.906667 436.906667 0 0 0 438.857143 18.285714c-242.249143 0-438.857143 196.608-438.857143 438.857143s196.608 438.857143 438.857143 438.857143 438.857143-196.608 438.857143-438.857143a436.906667 436.906667 0 0 0-96.012191-273.895619z m-97.816381 36.181333A340.21181 340.21181 0 0 1 780.190476 457.142857c0 188.611048-152.771048 341.333333-341.333333 341.333333-188.611048 0-341.333333-152.722286-341.333333-341.333333 0-188.562286 152.722286-341.333333 341.333333-341.333333a340.21181 340.21181 0 0 1 237.714286 96.304762l7.314285 7.314285z"  horiz-adv-x="1024" />

    
    <glyph glyph-name="jiantou-left-xian" unicode="&#59661;" d="M244.992 448H1024v-128H244.992l343.296-343.296-90.496-90.496L0 384 497.792 881.792l90.496-90.496z"  horiz-adv-x="1024" />

    
    <glyph glyph-name="jiantou-right-xian" unicode="&#59672;" d="M779.008 448L435.712 791.296 526.208 881.792 1024 384l-497.792-497.792-90.496 90.496L779.008 320H0V448z"  horiz-adv-x="1024" />

    


  </font>
</defs>
</svg>
